<?xml version="1.0" encoding="UTF-8"?>
<svg id="Layer_1" data-name="Layer 1" xmlns="http://www.w3.org/2000/svg" viewBox="0 0 1574.899166 359.844977">
  <defs>
    <style>
      .cls-1 {
        fill: #01814e;
      }

      .cls-2 {
        fill: none;
        opacity: .42;
      }
    </style>
  </defs>
  <path class="cls-2" d="M1672.928753-202.119484c-16.676848,0-32.021661,3.917475-44.377315,11.332276-11.569343,6.940667-20.288013,16.770736-25.296936,28.497341v-33.574333h-29.143995l.788659,36.656205V.197322h28.743797v-112.886182c0-19.275197,5.499487-35.56241,15.903446-47.098892,10.549485-11.700786,25.629064-17.883308,43.608608-17.883308,34.041425,0,51.301552,18.575732,51.301552,55.210812V.197322h28.748492v-127.741604c0-48.786528-24.30055-74.575202-70.276308-74.575202Z"/>
  <path class="cls-2" d="M-70.248807-202.287491c-16.676848,0-32.021661,3.917475-44.377315,11.332276-11.569343,6.940667-20.288013,16.770736-25.296936,28.497341v-33.574333h-29.143995l.788659,36.656205V.029316h28.743797v-112.886182c0-19.275197,5.499487-35.56241,15.903446-47.098892,10.549485-11.700786,25.629064-17.883308,43.608608-17.883308,34.041425,0,51.301552,18.575732,51.301552,55.210812V.029316H.0275v-127.741604C.0275-176.498817-24.27305-202.287491-70.248807-202.287491Z"/>
  <path class="cls-2" d="M1672.928753,353.346415c-16.676848,0-32.021661,3.917475-44.377315,11.332276-11.569343,6.940667-20.288013,16.770736-25.296936,28.497341v-33.574333h-29.143995l.788659,36.656205v159.405317h28.743797v-112.886182c0-19.275197,5.499487-35.56241,15.903446-47.098892,10.549485-11.700786,25.629064-17.883308,43.608608-17.883308,34.041425,0,51.301552,18.575732,51.301552,55.210812v122.657571h28.748492v-127.741604c0-48.786528-24.30055-74.575202-70.276308-74.575202Z"/>
  <g>
    <path class="cls-1" d="M64.465723,145.931172c17.123461,21.73449,39.85797,32.175642,66.689191,20.811158,24.277317-12.561672,45.402221,4.318888,33.958104,30.271956-6.823788,15.260346-7.699551,33.2784.130923,48.357886,4.70639,10.311882,15.201598,17.888515,16.180426,28.48669,1.652136,24.522513-34.288443,28.490025-37.609296,3.920186-.969468-9.010835,4.253097-17.754951,6.015013-26.561235,1.418419-6.525485,1.613132-13.324655.532856-19.92999-4.261334-31.729782-39.645623-52.790604-69.810222-42.031574-10.06892,3.017997-17.124321,9.715806-26.025947,14.637879-17.1392,9.871687-41.245299,2.441343-50.134176-15.305879-19.333875-38.253087,29.642577-73.190313,59.674404-43.054157l.398724.39708Z"/>
    <path class="cls-1" d="M231.0307,73.41045c-27.384351,3.962108-47.793908,18.430194-51.367587,47.348955-1.259931,27.305609-26.441377,37.160033-43.195335,14.272603-9.803954-13.539747-24.970165-23.307207-41.944619-24.06556-11.283547-1.080087-23.092707,4.220713-32.76041-.230684-22.063187-10.830465-7.528864-43.939676,15.409667-34.530699,8.288346,3.665834,13.24969,12.560766,19.995198,18.489771,4.942027,4.491129,10.732924,8.059341,16.99345,10.426462,29.609464,12.174468,65.540816-7.938815,71.305522-39.441639,2.420798-10.228939.148025-19.688.336198-29.858071.020469-19.778826,18.508385-36.940149,38.322368-35.764531,42.795083,2.382916,48.563383,62.266381,7.448792,73.206628l-.543243.146765Z"/>
    <path class="cls-1" d="M210.552975,253.920843c10.260889-25.696596,7.935937-50.605834-15.321605-68.16011-23.017385-14.743936-18.960844-41.478919,9.23723-44.544557,16.627741-1.7206,32.669715-9.971193,41.813694-24.292325,6.577156-9.231794,7.891109-22.109227,16.579983-28.256004,20.41105-13.692048,41.817306,15.449649,22.199628,30.610511-7.318878,5.345001-17.502786,5.194185-26.01021,8.071464-6.360445,2.034356-12.346056,5.265314-17.526305,9.503528-25.34813,19.555314-25.895191,60.729417-1.495299,81.47321,7.648121,7.210942,16.976295,9.972193,25.689748,15.22019,17.118731,9.907139,22.736914,34.498804,11.811808,51.070408-23.461206,35.870169-78.205956,10.923933-67.123194-30.152469l.14452-.543845Z"/>
    <path d="M562.451941,202.399956l-.084872.307394c-5.738318,20.785467-17.507266,38.016915-34.034714,49.82977-15.29053,10.927065-34.334127,16.755979-53.603891,16.439395-29.657505-.505123-54.540776-11.604903-71.958902-32.10133-17.641976-20.759594-26.943863-50.419503-26.901343-85.779151.042342-35.211769,9.420039-64.691947,27.117575-85.25647,17.340246-20.147134,42.249157-31.346656,72.032929-32.388251.87558-.031809,1.752312-.044839,2.631374-.043782,17.711513.021298,36.049092,6.449126,51.922587,18.25165,15.685881,11.661461,27.935627,27.945315,33.608882,44.674289l.101743.302924,24.515356-9.904286.252458-.102978-.077147-.260643c-6.916169-23.544675-21.03486-43.321209-40.82938-57.189377-19.885986-13.934002-44.683356-21.315558-71.71363-21.348062-39.61412-.047636-72.828349,13.583089-96.051898,39.420041-22.842779,25.414897-34.944012,61.309312-34.995116,103.807084-.050965,42.382755,11.895896,78.256795,34.549541,103.740485,23.101372,25.988897,56.21459,39.751021,95.759465,39.798573,27.076045.032559,52.317662-7.730118,72.995106-22.448633,20.63868-14.690394,35.431583-35.378123,42.778681-59.823441l.083662-.276881-28.098467-9.648322Z"/>
    <path d="M892.91609,86.519228c-16.677529-.020055-32.02768,3.879127-44.392756,11.279373-11.578162,6.927038-20.30901,16.747024-25.332239,28.468085l.040375-33.575705-29.145186-.035047.74461,36.658651-.191692,159.411831,28.744972.034566.135751-112.890795c.023179-19.275985,5.542477-35.55725,15.960734-47.081692,10.563987-11.688578,25.651617-17.853219,43.631895-17.831598,34.042816.040936,51.28131,18.638183,51.237255,55.27476l-.147501,122.662583,28.749666.034571.153615-127.746824c.058668-48.788522-24.211863-74.607472-70.189499-74.66276Z"/>
    <path d="M1152.698828,116.496771c-17.284441-19.428246-42.290747-29.716009-72.316169-29.752114-30.026595-.036107-55.056397,10.191488-72.387513,29.578109-16.567217,18.533123-25.344269,44.328765-25.380667,74.597131-.036395,30.266019,8.678597,56.080348,25.201194,74.653261,17.284441,19.428246,42.289574,29.716007,72.316169,29.752114,30.025421.036105,55.056397-10.191488,72.387513-29.578109,16.568391-18.533121,25.34544-44.326416,25.381835-74.592435.036398-30.268366-8.678591-56.085042-25.202362-74.657957ZM1080.159828,272.051843c-40.664535-.048899-66.901912-31.881645-66.842733-81.095027.059179-49.213382,26.373038-80.982936,67.037572-80.934037,40.903959.049187,67.296257,31.882119,67.237078,81.095502-.059179,49.213382-26.527959,80.982749-67.431918,80.933563Z"/>
    <path d="M1298.490993,87.006931c-32.592188-.039192-58.928452,15.226481-72.468095,41.934189l.043008-35.765731-28.746146-.034567-.320392,266.439083,28.746146.034567.129976-108.08823c6.864647,13.685961,16.475614,24.45988,28.579732,32.039778,12.708094,7.956191,27.569842,12.002026,44.173432,12.021992,26.316695.031646,48.461659-10.187682,64.041661-29.550588,15.123944-18.795408,23.136117-44.873646,23.172845-75.416645.075612-62.879333-34.211759-103.549947-87.352166-103.613848ZM1291.033814,110.27612c19.928533.023964,36.481606,7.893234,47.86925,22.760631,10.908376,14.240092,16.658802,34.138011,16.630652,57.547582-.060672,50.455101-24.849412,81.768766-64.694741,81.720852-40.085927-.048203-64.950687-31.421576-64.890015-81.876677.028449-23.658384,5.894909-43.645616,16.964181-57.798249,11.455998-14.647449,28.095901-22.378218,48.120673-22.354138Z"/>
    <path d="M1544.921865,93.558813l-65.269951,156.974539-62.869097-156.940842-.074888-.187874-31.146254-.037453,79.644918,190.391236-8.181617,18.634751c-8.701673,19.718577-16.571271,32.64038-45.500506,32.605593-4.362447-.005246-7.808276-.009389-12.484792-.404664l-.325069-.026211-.029406,24.454117,2.252046.155282c5.089691.35352,9.484639.65926,16.422069.667602,19.686761.023673,33.18468-4.67347,43.769608-15.232973,9.718912-9.696738,16.557882-23.457766,25.775188-45.461991l87.816157-205.137459.178897-.417604-29.977302-.036048Z"/>
    <path d="M776.471363,287.521532l-.027775-.326308c-.766217-8.930044-1.146114-19.969844-1.130669-32.814241l.118465-98.515962c.023275-19.355793-2.674184-43.411801-23.916421-57.751169-13.309393-8.607116-30.589633-12.984481-51.359671-13.009457-20.054113-.024115-37.949735,3.731168-51.755726,10.859742-15.529978,8.018474-25.406366,19.839328-29.355303,35.129574l-.070743.269854,28.450451,9.74029.342564.117777.052072-.359074c1.482771-10.136198,9.510705-33.705154,51.916932-33.654161,30.3693.036519,47.770082,13.483989,47.741929,36.895907-.024444,20.327573-14.210333,24.225808-39.285663,29.3691l-35.576783,7.773722c-14.552033,2.893151-29.785476,6.362918-42.047636,14.066089-14.507873,9.113544-21.570236,22.231143-21.591727,40.103446-.021201,17.630531,6.674449,32.285723,19.364715,42.380282,12.047719,9.584422,28.818926,14.663017,48.499819,14.686683,41.665656.050103,62.39806-22.308802,71.285329-36.304443l-.037648,31.308218,28.383489.034131ZM746.99991,215.255033c-.01936,16.100095-6.116472,29.768122-17.631141,39.526078-11.01066,9.331354-26.602888,14.460229-43.90245,14.439426-20.961342-.025206-45.426895-9.089376-45.396278-34.550483.013774-11.454799,4.972673-19.45547,15.606943-25.174784,9.558515-5.143173,22.488587-8.054705,39.729068-11.606561l8.589218-2.329928.478975-.105052c16.808777-3.716686,35.80229-7.911941,42.566199-13.908197l-.040536,33.7095Z"/>
  </g>
  <path class="cls-2" d="M-67.470071,299.507526c-16.676848,0-32.021661,3.917475-44.377315,11.332276-11.569343,6.940667-20.288013,16.770736-25.296936,28.497341v-33.574333h-29.143995l.788659,36.656205v159.405317h28.743797v-112.886182c0-19.275197,5.499487-35.56241,15.903446-47.098892,10.549485-11.700786,25.629064-17.883308,43.608608-17.883308,34.041425,0,51.301552,18.575732,51.301552,55.210812v122.657571H2.806237v-127.741604c0-48.786528-24.30055-74.575202-70.276308-74.575202Z"/>
</svg>